<svg xmlns="http://www.w3.org/2000/svg" width="262" height="86.451" viewBox="0 0 262 86.451"><path d="M-684.19,210.142a4.687,4.687,0,0,0-.217-1.485,2.985,2.985,0,0,0-.634-1.1,2.642,2.642,0,0,0-1.068-.685,4.612,4.612,0,0,0-1.553-.234h-5.91a8.443,8.443,0,0,0-2.17.25,3.967,3.967,0,0,0-1.619.852,5.519,5.519,0,0,0-1.2,1.569,13.55,13.55,0,0,0-.952,2.371l-9.682,25.674h-.133l-9.348-25.742a11.053,11.053,0,0,0-.935-2.354,4.731,4.731,0,0,0-1.336-1.536,5.114,5.114,0,0,0-1.9-.835,12.082,12.082,0,0,0-2.637-.25h-5.743a3.246,3.246,0,0,0-2.4.9,3.525,3.525,0,0,0-.9,2.6v38.5a1.035,1.035,0,0,0,.184.6,1.288,1.288,0,0,0,.667.434,6.531,6.531,0,0,0,1.286.267,16.618,16.618,0,0,0,2,.1,16.543,16.543,0,0,0,2.02-.1,6.917,6.917,0,0,0,1.285-.267,1.3,1.3,0,0,0,.684-.434,1.039,1.039,0,0,0,.184-.6V213.481h.067l12.086,35.124a1.289,1.289,0,0,0,.4.634,2.44,2.44,0,0,0,.818.45,5.8,5.8,0,0,0,1.319.267,19.162,19.162,0,0,0,1.936.084q1.135,0,1.937-.05a5.521,5.521,0,0,0,1.319-.217,2.115,2.115,0,0,0,.818-.451,1.62,1.62,0,0,0,.434-.718l12.52-35.124h.067v35.157a.977.977,0,0,0,.2.6,1.392,1.392,0,0,0,.668.434,6.16,6.16,0,0,0,1.269.267,16.618,16.618,0,0,0,2,.1,16.967,16.967,0,0,0,2.036-.1,6.526,6.526,0,0,0,1.285-.267,1.292,1.292,0,0,0,.668-.434,1.039,1.039,0,0,0,.184-.6Zm39.872,16.326a13.277,13.277,0,0,0-2.854-5.175,12.15,12.15,0,0,0-4.858-3.188,20.046,20.046,0,0,0-6.944-1.085,19.036,19.036,0,0,0-7.162,1.235,13.631,13.631,0,0,0-5.092,3.489,14.665,14.665,0,0,0-3.055,5.409,22.572,22.572,0,0,0-1.018,6.961,24.077,24.077,0,0,0,.935,7.011,13.162,13.162,0,0,0,2.871,5.175,12.425,12.425,0,0,0,4.874,3.2,19.645,19.645,0,0,0,6.911,1.1,19.163,19.163,0,0,0,7.179-1.236,13.493,13.493,0,0,0,5.108-3.505,14.661,14.661,0,0,0,3.038-5.409,22.745,22.745,0,0,0,1-6.944,24.232,24.232,0,0,0-.935-7.045m-8.146,11.6a9.154,9.154,0,0,1-1.336,3.155,5.92,5.92,0,0,1-2.3,1.987,7.465,7.465,0,0,1-3.306.684,7.282,7.282,0,0,1-3.472-.751,5.647,5.647,0,0,1-2.22-2.12,10.027,10.027,0,0,1-1.186-3.222,20.886,20.886,0,0,1-.367-4.057,17.92,17.92,0,0,1,.451-4.223,9.573,9.573,0,0,1,1.352-3.172,5.876,5.876,0,0,1,2.3-2,7.38,7.38,0,0,1,3.272-.684,7.138,7.138,0,0,1,3.489.768,5.937,5.937,0,0,1,2.22,2.137,9.556,9.556,0,0,1,1.185,3.222,21.861,21.861,0,0,1,.351,4.056,18.616,18.616,0,0,1-.434,4.223m45.95-7.763a23.459,23.459,0,0,0-.568-5.542,11.058,11.058,0,0,0-1.853-4.023,8.974,8.974,0,0,0-3.372-2.721,11.78,11.78,0,0,0-5.124-1,11.352,11.352,0,0,0-5.326,1.335,18.926,18.926,0,0,0-5.025,4.006v-3.439a1.029,1.029,0,0,0-.167-.584,1.226,1.226,0,0,0-.551-.417,4.014,4.014,0,0,0-1.085-.251,15.506,15.506,0,0,0-1.77-.083,14.7,14.7,0,0,0-1.72.083,4.811,4.811,0,0,0-1.118.251,1.224,1.224,0,0,0-.6.417,1.025,1.025,0,0,0-.167.584V248.7a.911.911,0,0,0,.2.585,1.475,1.475,0,0,0,.685.417,5.945,5.945,0,0,0,1.286.25q.8.083,2.036.084t2.036-.084a5.934,5.934,0,0,0,1.285-.25,1.47,1.47,0,0,0,.685-.417.909.909,0,0,0,.2-.585v-19.8a17.513,17.513,0,0,1,3.405-3.405,5.569,5.569,0,0,1,3.239-1.168,4.839,4.839,0,0,1,2.22.484,4.094,4.094,0,0,1,1.553,1.369,6.74,6.74,0,0,1,.918,2.12,14.362,14.362,0,0,1,.317,3.406V248.7a.905.905,0,0,0,.2.585,1.462,1.462,0,0,0,.667.417,5.686,5.686,0,0,0,1.286.25q.819.083,2.054.084,1.2,0,2.019-.084a5.682,5.682,0,0,0,1.286-.25,1.475,1.475,0,0,0,.668-.417.909.909,0,0,0,.2-.585Zm26.935,13.923a7.29,7.29,0,0,0-.183-.952.792.792,0,0,0-.283-.467.711.711,0,0,0-.385-.117,1.372,1.372,0,0,0-.517.117c-.189.078-.424.167-.7.267a7.722,7.722,0,0,1-.951.267,5.644,5.644,0,0,1-1.2.116,2.978,2.978,0,0,1-2.738-1.218,6.963,6.963,0,0,1-.767-3.656V224.6h6.511q.634,0,.968-.784a7.341,7.341,0,0,0,.333-2.621,13.557,13.557,0,0,0-.084-1.636,3.978,3.978,0,0,0-.25-1.052,1.227,1.227,0,0,0-.418-.551,1.028,1.028,0,0,0-.583-.167h-6.477v-6.644a.977.977,0,0,0-.2-.6,1.5,1.5,0,0,0-.667-.451,5.068,5.068,0,0,0-1.286-.267q-.819-.083-2.054-.083-1.2,0-2.02.083a5.317,5.317,0,0,0-1.3.267,1.38,1.38,0,0,0-.668.451,1.035,1.035,0,0,0-.184.6v6.644h-3.539a1.026,1.026,0,0,0-.583.167,1.221,1.221,0,0,0-.418.551,3.891,3.891,0,0,0-.25,1.052,13.372,13.372,0,0,0-.084,1.636,7.308,7.308,0,0,0,.333,2.621q.335.785.968.784h3.573v15.258a17.511,17.511,0,0,0,.568,4.741,8.128,8.128,0,0,0,1.77,3.322,7.206,7.206,0,0,0,3.038,1.953,13.331,13.331,0,0,0,4.341.634,17.092,17.092,0,0,0,1.853-.1,14.356,14.356,0,0,0,1.7-.284,8.244,8.244,0,0,0,1.368-.434,2.629,2.629,0,0,0,.885-.567,2.424,2.424,0,0,0,.484-1.1,10.565,10.565,0,0,0,.184-2.254,11.583,11.583,0,0,0-.084-1.536m32.645-15.458a17.07,17.07,0,0,0-.735-5.309,8.167,8.167,0,0,0-2.337-3.656,10.1,10.1,0,0,0-4.09-2.1,22.843,22.843,0,0,0-5.993-.685,22.616,22.616,0,0,0-3.823.317,25.374,25.374,0,0,0-3.423.818,19.218,19.218,0,0,0-2.738,1.085,6.26,6.26,0,0,0-1.636,1.069,2.513,2.513,0,0,0-.633,1.085,6.319,6.319,0,0,0-.168,1.636,8.849,8.849,0,0,0,.1,1.4,4.573,4.573,0,0,0,.283,1.069,1.693,1.693,0,0,0,.467.668,1,1,0,0,0,.651.234,3.1,3.1,0,0,0,1.386-.467q.85-.468,2.12-1.035a21.522,21.522,0,0,1,2.921-1.035,13.79,13.79,0,0,1,3.756-.468,9.278,9.278,0,0,1,2.687.334,3.858,3.858,0,0,1,1.736,1.035,4.086,4.086,0,0,1,.935,1.753,9.466,9.466,0,0,1,.284,2.454v1.8h-2.905a35.939,35.939,0,0,0-6.977.6,15.145,15.145,0,0,0-5.025,1.853,8.291,8.291,0,0,0-3.038,3.172,9.515,9.515,0,0,0-1.018,4.524,10.283,10.283,0,0,0,.8,4.207,8.263,8.263,0,0,0,2.254,3.021,9.793,9.793,0,0,0,3.439,1.836,14.619,14.619,0,0,0,4.357.617,12.162,12.162,0,0,0,5.225-1.1,13.529,13.529,0,0,0,4.19-3.072v2.37a.959.959,0,0,0,.283.735,1.886,1.886,0,0,0,.968.384,14.528,14.528,0,0,0,2.188.117,14.292,14.292,0,0,0,2.12-.117,2.292,2.292,0,0,0,1.052-.384.89.89,0,0,0,.334-.735Zm-8.247,12.353a13.489,13.489,0,0,1-3.022,2.638,6.158,6.158,0,0,1-3.255.9,4.737,4.737,0,0,1-3.289-1.068,3.753,3.753,0,0,1-1.185-2.938,4.377,4.377,0,0,1,.417-1.953,3.71,3.71,0,0,1,1.319-1.452,6.65,6.65,0,0,1,2.336-.9,17.249,17.249,0,0,1,3.473-.3h3.205Zm46.851-10.818a23.487,23.487,0,0,0-.567-5.542,11.051,11.051,0,0,0-1.854-4.023,8.96,8.96,0,0,0-3.371-2.721,11.785,11.785,0,0,0-5.125-1,11.349,11.349,0,0,0-5.325,1.335,18.9,18.9,0,0,0-5.024,4.006v-3.439a1.026,1.026,0,0,0-.168-.584,1.222,1.222,0,0,0-.551-.417,4.023,4.023,0,0,0-1.085-.251,15.527,15.527,0,0,0-1.77-.083,14.669,14.669,0,0,0-1.719.083,4.809,4.809,0,0,0-1.12.251,1.221,1.221,0,0,0-.6.417,1.025,1.025,0,0,0-.166.584V248.7a.909.909,0,0,0,.2.585,1.467,1.467,0,0,0,.685.417,5.933,5.933,0,0,0,1.285.25q.8.083,2.036.084t2.036-.084a5.95,5.95,0,0,0,1.286-.25,1.472,1.472,0,0,0,.685-.417.909.909,0,0,0,.2-.585v-19.8a17.5,17.5,0,0,1,3.406-3.405,5.563,5.563,0,0,1,3.238-1.168,4.845,4.845,0,0,1,2.22.484,4.088,4.088,0,0,1,1.552,1.369,6.678,6.678,0,0,1,.918,2.12,14.28,14.28,0,0,1,.318,3.406V248.7a.907.907,0,0,0,.2.585,1.46,1.46,0,0,0,.668.417,5.66,5.66,0,0,0,1.285.25q.818.083,2.054.084,1.2,0,2.019-.084a5.676,5.676,0,0,0,1.285-.25,1.47,1.47,0,0,0,.668-.417.912.912,0,0,0,.2-.585Zm35.4-1.536a17.085,17.085,0,0,0-.735-5.309A8.168,8.168,0,0,0-476,219.808a10.1,10.1,0,0,0-4.09-2.1,22.843,22.843,0,0,0-5.993-.685,22.617,22.617,0,0,0-3.823.317,25.4,25.4,0,0,0-3.422.818,19.2,19.2,0,0,0-2.738,1.085,6.258,6.258,0,0,0-1.636,1.069,2.512,2.512,0,0,0-.633,1.085,6.322,6.322,0,0,0-.167,1.636,9.024,9.024,0,0,0,.1,1.4,4.6,4.6,0,0,0,.283,1.069,1.693,1.693,0,0,0,.467.668,1,1,0,0,0,.651.234,3.1,3.1,0,0,0,1.386-.467q.85-.468,2.12-1.035a21.524,21.524,0,0,1,2.921-1.035,13.8,13.8,0,0,1,3.756-.468,9.278,9.278,0,0,1,2.687.334,3.857,3.857,0,0,1,1.737,1.035,4.091,4.091,0,0,1,.935,1.753,9.465,9.465,0,0,1,.284,2.454v1.8h-2.9a35.935,35.935,0,0,0-6.978.6,15.148,15.148,0,0,0-5.025,1.853,8.284,8.284,0,0,0-3.038,3.172,9.515,9.515,0,0,0-1.018,4.524,10.283,10.283,0,0,0,.8,4.207,8.256,8.256,0,0,0,2.254,3.021,9.8,9.8,0,0,0,3.439,1.836,14.62,14.62,0,0,0,4.357.617,12.169,12.169,0,0,0,5.225-1.1,13.536,13.536,0,0,0,4.189-3.072v2.37a.956.956,0,0,0,.284.735,1.879,1.879,0,0,0,.968.384,14.494,14.494,0,0,0,2.186.117,14.3,14.3,0,0,0,2.12-.117,2.3,2.3,0,0,0,1.053-.384.89.89,0,0,0,.333-.735Zm-8.247,12.353a13.49,13.49,0,0,1-3.022,2.638,6.158,6.158,0,0,1-3.255.9,4.735,4.735,0,0,1-3.289-1.068,3.751,3.751,0,0,1-1.185-2.938,4.377,4.377,0,0,1,.417-1.953,3.713,3.713,0,0,1,1.319-1.452,6.65,6.65,0,0,1,2.336-.9,17.246,17.246,0,0,1,3.473-.3h3.205Z" transform="translate(734.538 -206.637)" fill="#004999"/><path d="M-422.89,345.226a7.386,7.386,0,0,0-1.364-2.166,8.883,8.883,0,0,0-1.928-1.58,21.907,21.907,0,0,0-2.209-1.181q-1.127-.519-2.209-.984a14.769,14.769,0,0,1-1.938-1A4.872,4.872,0,0,1-433.9,337.1a2.621,2.621,0,0,1-.509-1.614,3.151,3.151,0,0,1,.227-1.191,2.5,2.5,0,0,1,.693-.964,3.371,3.371,0,0,1,1.159-.628,5.232,5.232,0,0,1,1.625-.227,7.766,7.766,0,0,1,2.187.292,12.239,12.239,0,0,1,1.755.65q.757.356,1.277.66a1.811,1.811,0,0,0,.758.3.536.536,0,0,0,.378-.13.838.838,0,0,0,.217-.412,3.816,3.816,0,0,0,.109-.714q.033-.434.032-1.061c0-.376-.008-.69-.022-.942a4.141,4.141,0,0,0-.076-.629,1.771,1.771,0,0,0-.129-.4,1.588,1.588,0,0,0-.293-.369,3.6,3.6,0,0,0-.888-.541,10.534,10.534,0,0,0-1.537-.586,13.669,13.669,0,0,0-1.863-.411,13.2,13.2,0,0,0-1.992-.151,13.068,13.068,0,0,0-3.649.5,8.574,8.574,0,0,0-2.988,1.5,7.265,7.265,0,0,0-2.014,2.534,7.953,7.953,0,0,0-.747,3.541,7.849,7.849,0,0,0,.519,3.01,7.437,7.437,0,0,0,1.354,2.177,8.877,8.877,0,0,0,1.9,1.581,19.863,19.863,0,0,0,2.187,1.18q1.125.52,2.187.986a14.1,14.1,0,0,1,1.9,1,5.151,5.151,0,0,1,1.352,1.213,2.614,2.614,0,0,1,.52,1.634,3.574,3.574,0,0,1-.3,1.494,2.985,2.985,0,0,1-.877,1.127,4.152,4.152,0,0,1-1.4.7,6.41,6.41,0,0,1-1.862.249,9.79,9.79,0,0,1-2.783-.357,12.86,12.86,0,0,1-2.068-.79,15.068,15.068,0,0,1-1.418-.791,1.8,1.8,0,0,0-.855-.358.629.629,0,0,0-.379.119.8.8,0,0,0-.26.4,3.185,3.185,0,0,0-.14.736c-.03.3-.044.679-.044,1.126a7.423,7.423,0,0,0,.119,1.527,1.626,1.626,0,0,0,.4.812,4.616,4.616,0,0,0,.921.649,9.558,9.558,0,0,0,1.592.7,15.247,15.247,0,0,0,2.2.574,14.351,14.351,0,0,0,2.7.238,14.037,14.037,0,0,0,4.029-.563,9.722,9.722,0,0,0,3.292-1.679,8.052,8.052,0,0,0,2.23-2.782,8.658,8.658,0,0,0,.824-3.877,7.588,7.588,0,0,0-.52-2.934m24.471-11.262a7.1,7.1,0,0,0-1.386-2.4,7.544,7.544,0,0,0-2.2-1.7,9.516,9.516,0,0,0-2.545-.921,20.244,20.244,0,0,0-2.155-.325q-.9-.076-1.9-.076h-6.6a1.928,1.928,0,0,0-1.4.509,2.02,2.02,0,0,0-.531,1.526v25.208a.639.639,0,0,0,.129.391.912.912,0,0,0,.455.281,4.524,4.524,0,0,0,.877.174,12.154,12.154,0,0,0,1.376.065,12.109,12.109,0,0,0,1.386-.065,4.519,4.519,0,0,0,.866-.174.987.987,0,0,0,.465-.281.608.608,0,0,0,.141-.391v-8.944h2.339a15.991,15.991,0,0,0,4.819-.65,9.442,9.442,0,0,0,3.453-1.9,8.049,8.049,0,0,0,2.145-3.064,11.084,11.084,0,0,0,.737-4.18,9.389,9.389,0,0,0-.477-3.087m-5.782,5.5a4.472,4.472,0,0,1-.888,1.581,3.905,3.905,0,0,1-1.5,1.029,6.178,6.178,0,0,1-2.286.368h-2.555v-9.507h2.426a12.141,12.141,0,0,1,1.721.119,4.231,4.231,0,0,1,1.593.574,3.6,3.6,0,0,1,1.278,1.407,5.042,5.042,0,0,1,.518,2.425,6.372,6.372,0,0,1-.3,2m35.939-3.551a11.321,11.321,0,0,0-2.469-4.43,9.9,9.9,0,0,0-4.072-2.6,17.13,17.13,0,0,0-5.62-.844,15.593,15.593,0,0,0-5.858,1.018,11.248,11.248,0,0,0-4.234,2.924,12.5,12.5,0,0,0-2.578,4.624,20.132,20.132,0,0,0-.867,6.118,22.449,22.449,0,0,0,.812,6.411,11.183,11.183,0,0,0,2.437,4.461,9.9,9.9,0,0,0,4.061,2.61,17.25,17.25,0,0,0,5.706.855,15.648,15.648,0,0,0,5.837-1.008,11.092,11.092,0,0,0,4.235-2.923,12.594,12.594,0,0,0,2.576-4.667,20.757,20.757,0,0,0,.866-6.238,21.331,21.331,0,0,0-.834-6.312m-5.5,10.417a8.969,8.969,0,0,1-1.223,3.129,6.307,6.307,0,0,1-2.274,2.123,7.171,7.171,0,0,1-3.509.779,7.875,7.875,0,0,1-3.487-.682,5.379,5.379,0,0,1-2.209-1.982,8.9,8.9,0,0,1-1.169-3.129,22.313,22.313,0,0,1-.346-4.126,18.793,18.793,0,0,1,.357-3.736,8.725,8.725,0,0,1,1.224-3.086,6.442,6.442,0,0,1,2.273-2.111,7.08,7.08,0,0,1,3.508-.79,7.618,7.618,0,0,1,3.466.7,5.636,5.636,0,0,1,2.22,1.992,8.616,8.616,0,0,1,1.18,3.1,21.351,21.351,0,0,1,.347,4.017,19.345,19.345,0,0,1-.357,3.8m32.69,8.9q-.108-.379-.432-1.2l-2.361-5.522a18.537,18.537,0,0,0-.845-1.787,9.969,9.969,0,0,0-.921-1.407,6.221,6.221,0,0,0-1.04-1.051,6.452,6.452,0,0,0-1.18-.736,9.232,9.232,0,0,0,2.317-1.083,6.917,6.917,0,0,0,1.712-1.581,6.6,6.6,0,0,0,1.05-2.068,8.672,8.672,0,0,0,.357-2.566,8.153,8.153,0,0,0-.5-2.956,6.346,6.346,0,0,0-1.44-2.231,7.3,7.3,0,0,0-2.3-1.527,11.829,11.829,0,0,0-3.043-.823q-.585-.065-1.3-.108t-1.818-.043h-7.255a1.773,1.773,0,0,0-1.2.422,1.731,1.731,0,0,0-.487,1.376v25.446a.637.637,0,0,0,.13.391.912.912,0,0,0,.455.281,4.541,4.541,0,0,0,.877.174,12.157,12.157,0,0,0,1.375.065,12.092,12.092,0,0,0,1.386-.065,4.488,4.488,0,0,0,.866-.174,1,1,0,0,0,.466-.281.608.608,0,0,0,.14-.391V345.106h1.776a4.236,4.236,0,0,1,1.6.281,3.5,3.5,0,0,1,1.224.834,5.971,5.971,0,0,1,.963,1.375q.434.822.888,1.884l2.513,6.259a1.679,1.679,0,0,0,.216.444.924.924,0,0,0,.444.3,3.19,3.19,0,0,0,.856.162c.36.029.845.044,1.45.044q1.083,0,1.711-.044a4.085,4.085,0,0,0,.954-.151.693.693,0,0,0,.411-.271.846.846,0,0,0,.088-.4,2.309,2.309,0,0,0-.109-.595m-7.536-16.773a3.358,3.358,0,0,1-.909,1.267,4.232,4.232,0,0,1-1.516.823,6.954,6.954,0,0,1-2.123.293h-2.9v-7.949h2.556a13.874,13.874,0,0,1,1.527.065,7.775,7.775,0,0,1,.985.174,3.414,3.414,0,0,1,2.058,1.343,4.154,4.154,0,0,1,.627,2.339,4.287,4.287,0,0,1-.3,1.646m30.871-8.684a2.976,2.976,0,0,0-.163-.725.872.872,0,0,0-.271-.39.59.59,0,0,0-.357-.119h-19.752a.581.581,0,0,0-.368.119.924.924,0,0,0-.26.39,2.915,2.915,0,0,0-.162.725,9.467,9.467,0,0,0-.055,1.1,8.955,8.955,0,0,0,.055,1.073,2.882,2.882,0,0,0,.162.714,1.015,1.015,0,0,0,.26.4.543.543,0,0,0,.368.13h7.017v22.588a.6.6,0,0,0,.141.391.994.994,0,0,0,.466.281,4.541,4.541,0,0,0,.877.174,12.165,12.165,0,0,0,1.376.065,12.171,12.171,0,0,0,1.376-.065,4.512,4.512,0,0,0,.876-.174.991.991,0,0,0,.466-.281.605.605,0,0,0,.14-.391V333.195h7.018a.551.551,0,0,0,.357-.13.952.952,0,0,0,.271-.4,2.943,2.943,0,0,0,.163-.714,9.173,9.173,0,0,0,.054-1.073,9.7,9.7,0,0,0-.054-1.1" transform="translate(579.685 -270.611)" fill="#004999"/></svg>